<svg xmlns="http://www.w3.org/2000/svg" width="22" height="22" viewBox="0 0 22 22">
  <g id="airplane" transform="translate(-0.001 0)">
    <path id="Path_10" data-name="Path 10" d="M50.579.351C49.574-.654,46.711.573,44.2,3.086l-3.57,3.57A103.4,103.4,0,0,0,30.352,18.63a.644.644,0,0,0,.066.834l1.049,1.049a.645.645,0,0,0,.834.066A103.377,103.377,0,0,0,44.274,10.3l3.57-3.57c2.513-2.513,3.74-5.375,2.734-6.381Z" transform="translate(-28.929 0)" fill="#fff" opacity="0.4"/>
    <path id="Path_11" data-name="Path 11" d="M140.568,420.571l.912-.911a.645.645,0,0,0,.17-.613l-.6-2.383c-1,.837-1.988,1.626-2.94,2.361l1.547,1.547A.644.644,0,0,0,140.568,420.571Z" transform="translate(-132.174 -398.76)" fill="#fff"/>
    <path id="Path_12" data-name="Path 12" d="M.19,293.088l1.547,1.547c.735-.952,1.524-1.937,2.361-2.94l-2.383-.6a.645.645,0,0,0-.613.17l-.912.911a.644.644,0,0,0,0,.912Z" transform="translate(0 -278.569)" fill="#fff"/>
    <path id="Path_13" data-name="Path 13" d="M184.917,25.182l-.984.984,2.278,1.368L186.74,27a.644.644,0,0,0,0-.911l-.912-.911A.644.644,0,0,0,184.917,25.182Z" transform="translate(-176.028 -23.919)" fill="#fff"/>
    <path id="Path_14" data-name="Path 14" d="M430.232,259.437l-.911-.911a.644.644,0,0,0-.911,0l-.529.529,1.368,2.278.984-.984A.644.644,0,0,0,430.232,259.437Z" transform="translate(-409.493 -247.236)" fill="#fff"/>
    <path id="Path_15" data-name="Path 15" d="M298.066,265.261l-4.87-8.112-.165.165c-1.227,1.227-2.518,2.431-3.829,3.614l6.488,6.487a.644.644,0,0,0,.912,0l1.367-1.367A.644.644,0,0,0,298.066,265.261Z" transform="translate(-276.775 -246.1)" fill="#fff"/>
    <path id="Path_16" data-name="Path 16" d="M11.714,16.856,18.2,23.344c1.184-1.31,2.388-2.6,3.614-3.829l.165-.165-8.112-4.87a.644.644,0,0,0-.787.1l-1.367,1.367A.644.644,0,0,0,11.714,16.856Z" transform="translate(-11.028 -13.77)" fill="#fff"/>
  </g>
</svg>
