<svg width="86" height="80" viewBox="0 0 86 80" fill="none" xmlns="http://www.w3.org/2000/svg">
<style>
    #translate{
        animation: translateY 4s linear infinite
    }
    @keyframes translateY {
        0%,
        100% {
            transform: translateY(0px);
        }

        50% {
            transform: translateY(-4px);
        }
    }
</style>
<g id="booking 1" clip-path="url(#clip0_395_2)">
<g id="booking">
<path id="Path 278" opacity="0.4" d="M67.645 1.00872e-05H17.512C12.8442 -0.0132506 8.36229 1.82831 5.05228 5.11958C1.74226 8.41084 -0.124739 12.8822 -0.137999 17.55C-0.15126 22.2178 1.6903 26.6997 4.98157 30.0097C8.27283 33.3198 12.7442 35.1868 17.412 35.2H25.277V21.41C25.2727 18.4481 26.4436 15.6055 28.5326 13.5059C30.6216 11.4062 33.4582 10.2209 36.42 10.21H36.444C39.4013 10.2285 42.2309 11.417 44.3145 13.5157C46.398 15.6145 47.566 18.4527 47.563 21.41V35.2H67.645C72.3128 35.2 76.7894 33.3457 80.0901 30.0451C83.3907 26.7444 85.245 22.2678 85.245 17.6C85.245 12.9322 83.3907 8.45557 80.0901 5.15493C76.7894 1.85429 72.3128 1.00872e-05 67.645 1.00872e-05V1.00872e-05ZM72.6 15.146L62.621 25.176C62.3899 25.4087 62.1151 25.5934 61.8124 25.7194C61.5096 25.8454 61.1849 25.9103 60.857 25.9103C60.5291 25.9103 60.2044 25.8454 59.9016 25.7194C59.5989 25.5934 59.3241 25.4087 59.093 25.176L54.1 20.16C53.6319 19.6887 53.3691 19.0513 53.3691 18.387C53.3691 17.7227 53.6319 17.0853 54.1 16.614C54.3311 16.3813 54.6059 16.1966 54.9086 16.0706C55.2114 15.9446 55.5361 15.8797 55.864 15.8797C56.1919 15.8797 56.5166 15.9446 56.8194 16.0706C57.1221 16.1966 57.3969 16.3813 57.628 16.614L60.854 19.856L69.072 11.6C69.3031 11.3673 69.5779 11.1826 69.8806 11.0566C70.1834 10.9306 70.5081 10.8657 70.836 10.8657C71.1639 10.8657 71.4886 10.9306 71.7914 11.0566C72.0941 11.1826 72.3689 11.3673 72.6 11.6C73.0681 12.0713 73.3309 12.7087 73.3309 13.373C73.3309 14.0373 73.0681 14.6747 72.6 15.146V15.146Z" fill="#B38224"/>
<g id="translate">
<path id="Path 279" d="M58.746 42.035L42.605 40.357V21.189C42.605 19.5486 41.9534 17.9755 40.7935 16.8155C39.6335 15.6556 38.0604 15.004 36.42 15.004C34.7796 15.004 33.2065 15.6556 32.0465 16.8155C30.8866 17.9755 30.235 19.5486 30.235 21.189V53.27H30.179L24.074 48.17C23.4759 47.657 22.7819 47.2679 22.0323 47.0254C21.2826 46.7828 20.4922 46.6916 19.707 46.757C18.9218 46.8224 18.1574 47.0432 17.4582 47.4065C16.759 47.7697 16.1389 48.2683 15.634 48.8731C15.1291 49.478 14.7493 50.1772 14.5168 50.93C14.2843 51.6829 14.2037 52.4744 14.2796 53.2587C14.3555 54.0429 14.5865 54.8043 14.959 55.4986C15.3316 56.1929 15.8384 56.8062 16.45 57.303L28.842 67.644H65.342V49.499C65.3418 47.6645 64.6712 45.8934 63.4565 44.5188C62.2417 43.1442 60.5665 42.2608 58.746 42.035V42.035Z" fill="#B38224"/>
<path id="Path 280" d="M30.156 77.493C30.156 78.1579 30.4201 78.7956 30.8903 79.2657C31.3604 79.7359 31.9981 80 32.663 80H62.752C63.4169 80 64.0546 79.7359 64.5247 79.2657C64.9949 78.7956 65.259 78.1579 65.259 77.493V72.478H30.159L30.156 77.493Z" fill="#B38224"/>
</g>
</g>
</g>
<defs>
<clipPath id="clip0_395_2">
<rect width="85.156" height="80" fill="white"/>
</clipPath>
</defs>
</svg>
