<svg xmlns="http://www.w3.org/2000/svg" width="22.022" height="22" viewBox="0 0 22.022 22">
  <g id="bus_1_" data-name="bus (1)" transform="translate(0 -0.25)">
    <path id="Path_4" data-name="Path 4" d="M21.833,4.093,20.757,3.03a.649.649,0,0,0-.456-.187h-.823A2.785,2.785,0,0,0,16.688.25H5.333a2.785,2.785,0,0,0-2.79,2.594H1.72a.649.649,0,0,0-.456.187L.189,4.093A.634.634,0,0,0,0,4.544V7.733a.642.642,0,0,0,.645.638.642.642,0,0,0,.645-.638V4.808l.7-.689h.55V11.81c2.671.523,14.35.508,16.946,0V4.119h.55l.7.689V7.733a.645.645,0,0,0,1.29,0V4.544A.634.634,0,0,0,21.833,4.093Z" transform="translate(0)" fill="#fff"/>
    <path id="Path_5" data-name="Path 5" d="M76,480.66v.259a1.064,1.064,0,0,0,1.063,1.063h2a1.064,1.064,0,0,0,1.063-1.063v-.234C76.136,480.677,76.3,480.7,76,480.66Z" transform="translate(-72.769 -459.732)" fill="#fff"/>
    <path id="Path_6" data-name="Path 6" d="M339,480.685v.234a1.064,1.064,0,0,0,1.063,1.063h2a1.064,1.064,0,0,0,1.063-1.063v-.259C342.829,480.7,342.988,480.677,339,480.685Z" transform="translate(-324.334 -459.732)" fill="#fff"/>
    <path id="Path_7" data-name="Path 7" d="M59,302.6v2.359l4.081.7a.645.645,0,0,1,.506.434l.917,2.83h6l.917-2.83a.644.644,0,0,1,.506-.434l4.081-.7V302.6A98.433,98.433,0,0,1,59,302.6Zm10.444,3.131H65.56a.638.638,0,1,1,0-1.275h3.884a.638.638,0,1,1,0,1.275Z" transform="translate(-56.491 -289.244)" fill="#fff" opacity="0.4"/>
    <path id="Path_8" data-name="Path 8" d="M356.958,391.194h3.021a1.064,1.064,0,0,0,1.063-1.063v-1.6l-3.422.593Z" transform="translate(-341.528 -371.516)" fill="#fff"/>
    <path id="Path_9" data-name="Path 9" d="M63.084,391.194l-.662-2.074L59,388.527v1.6a1.064,1.064,0,0,0,1.063,1.063Z" transform="translate(-56.491 -371.516)" fill="#fff"/>
  </g>
</svg>
