<svg id="Group_158" data-name="Group 158" xmlns="http://www.w3.org/2000/svg" width="24" height="24" viewBox="0 0 24 24">
  <path id="Path_266" data-name="Path 266" d="M24,0H0V24H24Z" fill="none"/>
  <path id="Path_267" data-name="Path 267" d="M3,16.42v3.536a1,1,0,0,0,.93,1c.437.03.794.046,1.07.046A16,16,0,0,0,21,5q0-.414-.046-1.07a1,1,0,0,0-1-.93H16.421a.5.5,0,0,0-.5.45c-.023.23-.044.413-.064.552a13.9,13.9,0,0,1-1.208,4,.456.456,0,0,0,.147.567l2.158,1.542a13.047,13.047,0,0,1-6.844,6.844L8.572,14.8A.462.462,0,0,0,8,14.653a13.9,13.9,0,0,1-4,1.2c-.139.02-.322.042-.55.064a.5.5,0,0,0-.449.5Z" transform="translate(-0.001)" fill="#b38224"/>
</svg>
