<svg xmlns="http://www.w3.org/2000/svg" width="76.701" height="80" viewBox="0 0 76.701 80">
  <g id="excellent" transform="translate(-22.236 -18.504)">
    <rect id="Rectangle_14" data-name="Rectangle 14" width="19.333" height="37.713" rx="3.776" transform="translate(32.834 60.791)" fill="#b38224"/>
    <path id="Path_85" data-name="Path 85" d="M89.418,70.763a4.066,4.066,0,0,0-4.071-4.071H72.064l.667-1.83a27.9,27.9,0,0,0,1.5-8.545c.135-3.693-2.21-7.544-4.753-6.916a2.3,2.3,0,0,0-1.609,1.616l-.816,2.809a31.552,31.552,0,0,1-6.051,11.39l-4.8,5.766V97.021l5.564,1.89a6.6,6.6,0,0,0,2.122.354H83.163a4.184,4.184,0,0,0,4.243-3.945,4.071,4.071,0,0,0-4.066-4.2h1.335a4.073,4.073,0,0,0,0-8.146h.5a4.184,4.184,0,0,0,4.243-3.945,4.072,4.072,0,0,0-4.066-4.2,4.071,4.071,0,0,0,4.065-4.071Z" transform="translate(-3.94 -3.576)" fill="#ffdaaa"/>
    <path id="Path_86" data-name="Path 86" d="M31.988,24.134,35,30.24l6.739.979-4.876,4.753,1.151,6.711-6.027-3.169-6.027,3.169,1.151-6.711-4.876-4.753,6.739-.979Z" transform="translate(0 -0.653)" fill="#38568a"/>
    <path id="Path_87" data-name="Path 87" d="M64.18,18.5l3.387,6.863,7.574,1.1L69.66,31.81l1.294,7.543L64.18,35.792,57.4,39.354,58.7,31.81l-5.481-5.342,7.574-1.1Z" transform="translate(-3.593)" fill="#b38224"/>
    <path id="Path_88" data-name="Path 88" d="M96.688,24.134,99.7,30.24l6.739.979-4.876,4.753,1.151,6.711-6.027-3.169-6.027,3.169,1.151-6.711-4.876-4.753,6.739-.979Z" transform="translate(-7.504 -0.653)" fill="#38568a"/>
  </g>
</svg>
