<svg xmlns="http://www.w3.org/2000/svg" width="72.307" height="80" viewBox="0 0 72.307 80">
  <g id="Group_92" data-name="Group 92" transform="translate(-315.693 -1047)">
    <g id="ikhwan" transform="translate(187.244 1047)">
      <g id="Group_90" data-name="Group 90" transform="translate(128.449)">
        <g id="Group_83" data-name="Group 83" transform="translate(0 30.942)">
          <path id="Path_89" data-name="Path 89" d="M167.589,245.8V219.89a9.286,9.286,0,0,0-6.208-9.006l-4.173-1.642-.651-1.076-.849-.34a5.013,5.013,0,0,1-3.149-4.653v-5.144H144.2v5.144a5.013,5.013,0,0,1-3.149,4.653l-6.085,2.438a10.37,10.37,0,0,0-6.514,9.626v27.2h7.873l1.695-1.285Z" transform="translate(-128.449 -198.029)" fill="#ffdaaa"/>
        </g>
        <path id="Path_90" data-name="Path 90" d="M161.538,375.734h-3.2V351.617a1.117,1.117,0,0,1,1.117-1.117h2.087Z" transform="translate(-153.664 -295.734)" fill="#f3cc98"/>
        <g id="Group_84" data-name="Group 84" transform="translate(20.781 30.941)">
          <path id="Path_91" data-name="Path 91" d="M279.805,219.885V245.8h-2.611V221.412a10.37,10.37,0,0,0-6.513-9.626l-6.085-2.439a5.012,5.012,0,0,1-3.15-4.653v-6.672h3.331v5.145a5.011,5.011,0,0,0,3.148,4.653l.849.34,1.433,1.248,3.391,1.47A9.288,9.288,0,0,1,279.805,219.885Z" transform="translate(-261.446 -198.023)" fill="#f3cc98"/>
        </g>
        <path id="Path_92" data-name="Path 92" d="M200.461,21.57c-.117,5.982-4.823,12.289-11.706,12.289s-11.87-4.878-11.87-11.761l-.65-3V12.463a12.463,12.463,0,1,1,24.925,0V19.1Z" transform="translate(-168.769)" fill="#ffdaaa"/>
        <path id="Path_93" data-name="Path 93" d="M259.473,12.465V19.1l-.7,2.472c0,6.883-3.255,11.088-10.912,12.289a13.09,13.09,0,0,1-2.512,0,12.108,12.108,0,0,0,10.794-12v-9.4a12.46,12.46,0,0,0-10.8-12.35A12.154,12.154,0,0,1,247.011,0a12.461,12.461,0,0,1,12.462,12.462Z" transform="translate(-227.081 -0.003)" fill="#f3cc98"/>
        <path id="Path_94" data-name="Path 94" d="M210.825,274.63v27.2H178.839V282.352l20.236-19.446,5.236,2.1a10.373,10.373,0,0,1,6.514,9.627Z" transform="translate(-170.966 -221.827)" fill="#fdf6ec"/>
        <g id="Group_85" data-name="Group 85" transform="translate(26.007 41.078)">
          <path id="Path_95" data-name="Path 95" d="M308.746,274.627v27.2h-3.329V276.154a10.37,10.37,0,0,0-6.513-9.626l-4.009-1.607L297,262.9l5.236,2.1A10.371,10.371,0,0,1,308.746,274.627Z" transform="translate(-294.895 -262.902)" fill="#fef1da"/>
        </g>
        <g id="Group_86" data-name="Group 86" transform="translate(24.896 47.066)">
          <path id="Path_96" data-name="Path 96" d="M288.984,306.877a1.2,1.2,0,0,1-.9-2l2.9-3.249a1.2,1.2,0,0,1,1.793,1.6l-2.9,3.249A1.2,1.2,0,0,1,288.984,306.877Z" transform="translate(-287.783 -301.225)" fill="#b38224"/>
        </g>
        <g id="Group_87" data-name="Group 87" transform="translate(11.849 54.404)">
          <path id="Path_97" data-name="Path 97" d="M205.486,360.328a1.2,1.2,0,0,1-.862-2.038l9.447-9.738a1.2,1.2,0,1,1,1.725,1.673l-9.447,9.738A1.2,1.2,0,0,1,205.486,360.328Z" transform="translate(-204.285 -348.187)" fill="#b38224"/>
        </g>
        <g id="Group_88" data-name="Group 88" transform="translate(26.984 49.851)">
          <path id="Path_98" data-name="Path 98" d="M302.349,330.965a1.2,1.2,0,0,1-1.069-1.75l4.873-9.514a1.2,1.2,0,0,1,2.139,1.1l-4.873,9.514A1.2,1.2,0,0,1,302.349,330.965Z" transform="translate(-301.148 -319.046)" fill="#b38224"/>
        </g>
        <g id="Group_89" data-name="Group 89" transform="translate(23.732 64.596)">
          <path id="Path_99" data-name="Path 99" d="M281.533,417.905a1.2,1.2,0,0,1-1.074-1.739l1.045-2.09a1.2,1.2,0,1,1,2.15,1.075l-1.045,2.09A1.2,1.2,0,0,1,281.533,417.905Z" transform="translate(-280.332 -413.411)" fill="#38568a"/>
        </g>
        <path id="Path_100" data-name="Path 100" d="M198.3,125.349a13.809,13.809,0,0,1-1.484.969,1.337,1.337,0,0,1-1.907-.645c-.843-2-3.306-3.447-6.212-3.447s-5.369,1.447-6.212,3.447a1.337,1.337,0,0,1-1.907.645,13.78,13.78,0,0,1-1.484-.969,11.08,11.08,0,0,1-2.86-3.123v2.764a12.464,12.464,0,0,0,12.607,12.463,12.566,12.566,0,0,0,12.32-12.622v-2.605A11.083,11.083,0,0,1,198.3,125.349Z" transform="translate(-168.765 -103.128)" fill="#685e68"/>
        <path id="Path_101" data-name="Path 101" d="M259.491,122.223v2.605a12.567,12.567,0,0,1-12.321,12.622h-.143a12.344,12.344,0,0,1-1.662-.111,12.463,12.463,0,0,0,10.773-11.64c.183-.122.349-.24.492-.353A11.1,11.1,0,0,0,259.491,122.223Z" transform="translate(-227.098 -103.126)" fill="#554e56"/>
        <path id="Path_102" data-name="Path 102" d="M241.181,153.106c-.695-2.086-3.345-2.464-5.093-1.493a2.933,2.933,0,0,0-1.134,3.748,2.877,2.877,0,0,0,2.516,1.5c.185.017.372.024.558.024a4.477,4.477,0,0,0,1.893-.356A2.735,2.735,0,0,0,241.181,153.106Z" transform="translate(-218.088 -127.495)" fill="#f6a96c"/>
      </g>
    </g>
    <g id="Makkah" transform="translate(352 1091)">
      <g id="Group_91" data-name="Group 91" transform="translate(1 1)">
        <path id="Path_103" data-name="Path 103" d="M41.645,5.6V8.672L24,4.836V1Z" transform="translate(-6.645 -1)" fill="#374f68"/>
        <path id="Path_104" data-name="Path 104" d="M41.645,5.6V8.672L24,4.836V1Z" transform="translate(-6.645 -1)" fill="#374f68"/>
        <path id="Path_105" data-name="Path 105" d="M1,5.6V8.672L18.645,4.836V1Z" transform="translate(-1 -1)" fill="#374f68"/>
      </g>
      <path id="Path_106" data-name="Path 106" d="M42.111,5.724V7.259L28.179,4.228A2.777,2.777,0,0,1,26,1.52Z" transform="translate(-6.111 -0.121)" fill="#425b72"/>
      <path id="Path_107" data-name="Path 107" d="M41.645,9.836V12.9L24,9.836V6Z" transform="translate(-5.645 -1.164)" fill="#fc6"/>
      <path id="Path_108" data-name="Path 108" d="M42.111,9.936V11.47l-13.9-2.417A2.67,2.67,0,0,1,26,6.43Z" transform="translate(-6.111 -1.264)" fill="#ffde76"/>
      <path id="Path_109" data-name="Path 109" d="M41.645,14.069v2.3L24,14.069V11Z" transform="translate(-5.645 -2.403)" fill="#fc6"/>
      <path id="Path_110" data-name="Path 110" d="M42.111,14.15v1.534L28.217,13.874A2.547,2.547,0,0,1,26,11.35Z" transform="translate(-6.111 -2.484)" fill="#ffde76"/>
      <path id="Path_111" data-name="Path 111" d="M46.3,35v3.069l-2.3.3V35.2Z" transform="translate(-10.302 -8.153)" fill="#7c7d7d"/>
      <path id="Path_112" data-name="Path 112" d="M46.534,35v2.4A1.366,1.366,0,0,1,45,36.051V35.13Z" transform="translate(-10.534 -8.146)" fill="#919191"/>
      <path id="Path_113" data-name="Path 113" d="M41.645,17.3V30.344L24,31.878V15Z" transform="translate(-5.645 -3.429)" fill="#374f68"/>
      <path id="Path_114" data-name="Path 114" d="M42.111,17.362V28.87L29.337,29.982A3.069,3.069,0,0,1,26,26.913V15.26Z" transform="translate(-6.111 -3.475)" fill="#425b72"/>
      <path id="Path_115" data-name="Path 115" d="M45.37,39v3.069L40,43V39.7Z" transform="translate(-9.37 -9.137)" fill="#7c7d7d"/>
      <path id="Path_116" data-name="Path 116" d="M45.6,39v2.432l-2,.353A2.217,2.217,0,0,1,41,39.6Z" transform="translate(-9.603 -9.137)" fill="#919191"/>
      <path id="Path_117" data-name="Path 117" d="M38.137,39.91v3.307L32,44.283V40.746Z" transform="translate(-7.454 -9.349)" fill="#7c7d7d"/>
      <path id="Path_118" data-name="Path 118" d="M38.37,39.91v2.67l-2.516.468A2.44,2.44,0,0,1,33,40.616C35.9,40.232,34.688,40.386,38.37,39.91Z" transform="translate(-7.688 -9.349)" fill="#919191"/>
      <path id="Path_119" data-name="Path 119" d="M30.137,41v3.567L24,45.6V41.767Z" transform="translate(-5.531 -9.603)" fill="#7c7d7d"/>
      <path id="Path_120" data-name="Path 120" d="M30.37,41v2.931l-2.248.391A2.662,2.662,0,0,1,25,41.667Z" transform="translate(-5.766 -9.603)" fill="#919191"/>
      <path id="Path_121" data-name="Path 121" d="M42.137,35.26v3.168L36,39.2V35.828Z" transform="translate(-8.439 -8.267)" fill="#7c7d7d"/>
      <path id="Path_122" data-name="Path 122" d="M42.37,35.26v2.5l-2.662.368A2.4,2.4,0,0,1,37,35.728Z" transform="translate(-8.672 -8.212)" fill="#919191"/>
      <path id="Path_123" data-name="Path 123" d="M27.069,36.65v3.705l-3.069.4V36.919Z" transform="translate(-5.514 -8.59)" fill="#7c7d7d"/>
      <path id="Path_124" data-name="Path 124" d="M27.3,36.65v3.069A2.041,2.041,0,0,1,25,37.686v-.836Z" transform="translate(-5.75 -8.59)" fill="#919191"/>
      <path id="Path_125" data-name="Path 125" d="M34.137,36v3.429c-3.682.491-2.3.307-6.137.767V36.5Z" transform="translate(-6.492 -8.439)" fill="#7c7d7d"/>
      <path id="Path_126" data-name="Path 126" d="M34.37,36v2.762l-2.3.307A2.639,2.639,0,0,1,29,36.46Z" transform="translate(-6.727 -8.391)" fill="#919191"/>
      <path id="Path_127" data-name="Path 127" d="M19.111,1V3.3L4.534,6.47A1.3,1.3,0,0,1,3,5.2Z" transform="translate(-0.466)" fill="#425b72"/>
      <path id="Path_128" data-name="Path 128" d="M18.645,6V9.836L1,12.9V9.836Z" transform="translate(0 -1.164)" fill="#fc6"/>
      <path id="Path_129" data-name="Path 129" d="M19.122,6V8.3L4.584,10.826A1.343,1.343,0,0,1,3.05,9.506Z" transform="translate(-0.477 -1.164)" fill="#ffde76"/>
      <path id="Path_130" data-name="Path 130" d="M18.645,11v3.069L1,16.37v-2.3Z" transform="translate(0 -2.403)" fill="#fc6"/>
      <path id="Path_131" data-name="Path 131" d="M19.111,11v2.3L4.588,15.2A1.4,1.4,0,0,1,3,13.8Z" transform="translate(-0.466 -2.4)" fill="#ffde76"/>
      <path id="Path_132" data-name="Path 132" d="M3.3,35.2v3.168l-2.3-.3V35Z" transform="translate(0 -8.153)" fill="#7c7d7d"/>
      <path id="Path_133" data-name="Path 133" d="M3.534,35.225v2.3A1.772,1.772,0,0,1,2,35.793V35.11Z" transform="translate(-0.233 -8.173)" fill="#919191"/>
      <path id="Path_134" data-name="Path 134" d="M18.645,15V31.878L1,30.344V17.3Z" transform="translate(0 -3.429)" fill="#374f68"/>
      <path id="Path_135" data-name="Path 135" d="M19.111,15V30.344L5.8,29.185A3.069,3.069,0,0,1,3,26.124V17.1Z" transform="translate(-0.466 -3.416)" fill="#425b72"/>
      <path id="Path_136" data-name="Path 136" d="M22.137,41.767V45.6L16,44.537V41Z" transform="translate(-3.607 -9.603)" fill="#7c7d7d"/>
      <path id="Path_137" data-name="Path 137" d="M22.37,41.788v2.938l-2.708-.476A3.207,3.207,0,0,1,17,41.09Z" transform="translate(-3.844 -9.624)" fill="#919191"/>
      <path id="Path_138" data-name="Path 138" d="M14.137,40.746v3.567L8,43.217V39.91Z" transform="translate(-1.683 -9.349)" fill="#7c7d7d"/>
      <path id="Path_139" data-name="Path 139" d="M14.37,40.767v2.67L11.4,42.923A2.908,2.908,0,0,1,9,40Z" transform="translate(-1.922 -9.37)" fill="#919191"/>
      <path id="Path_140" data-name="Path 140" d="M6.37,39.7V43L1,42.069V39Z" transform="translate(0 -9.137)" fill="#7c7d7d"/>
      <path id="Path_141" data-name="Path 141" d="M6.6,39.728v2.409l-2.432-.43A2.608,2.608,0,0,1,2,39.13Z" transform="translate(-0.233 -9.168)" fill="#919191"/>
      <path id="Path_142" data-name="Path 142" d="M10.137,35.828v3.429L4,38.49V35.26Z" transform="translate(-0.698 -8.267)" fill="#7c7d7d"/>
      <path id="Path_143" data-name="Path 143" d="M10.37,35.849V38.38l-3.069-.4A2.647,2.647,0,0,1,5,35.35Z" transform="translate(-0.931 -8.234)" fill="#919191"/>
      <path id="Path_144" data-name="Path 144" d="M18.137,36.5V40.2L12,39.437V36Z" transform="translate(-2.645 -8.439)" fill="#7c7d7d"/>
      <path id="Path_145" data-name="Path 145" d="M18.37,36.51v2.839l-2.8-.368A2.954,2.954,0,0,1,13,36.05Z" transform="translate(-2.883 -8.451)" fill="#919191"/>
      <path id="Path_146" data-name="Path 146" d="M23.069,36.919v3.836L20,40.355V36.65Z" transform="translate(-4.555 -8.59)" fill="#7c7d7d"/>
      <path id="Path_147" data-name="Path 147" d="M23.3,36.939v2.969A2.639,2.639,0,0,1,21,37.285V36.74Z" transform="translate(-4.791 -8.611)" fill="#919191"/>
      <path id="Path_148" data-name="Path 148" d="M37.137,23.569v9.245L31,33.342V23.3Z" transform="translate(-7.214 -5.389)" fill="#fc6"/>
      <path id="Path_149" data-name="Path 149" d="M37.6,23.589c0,8.132-.077,7.718,0,7.71A4.235,4.235,0,0,1,33,27.08V23.39Z" transform="translate(-7.682 -5.395)" fill="#ffde76"/>
    </g>
  </g>
</svg>
