<svg xmlns="http://www.w3.org/2000/svg" width="23.656" height="23.651" viewBox="0 0 23.656 23.651">
  <path id="instagram" d="M11.756,37.587a6.064,6.064,0,1,0,6.064,6.064A6.054,6.054,0,0,0,11.756,37.587Zm0,10.006A3.942,3.942,0,1,1,15.7,43.65a3.949,3.949,0,0,1-3.942,3.942Zm7.726-10.254a1.414,1.414,0,1,1-1.414-1.414A1.411,1.411,0,0,1,19.482,37.339ZM23.5,38.774a7,7,0,0,0-1.91-4.955,7.045,7.045,0,0,0-4.955-1.91c-1.953-.111-7.805-.111-9.758,0a7.035,7.035,0,0,0-4.955,1.905,7.022,7.022,0,0,0-1.91,4.955c-.111,1.953-.111,7.805,0,9.758a7,7,0,0,0,1.91,4.955,7.054,7.054,0,0,0,4.955,1.91c1.953.111,7.805.111,9.758,0a7,7,0,0,0,4.955-1.91,7.045,7.045,0,0,0,1.91-4.955c.111-1.953.111-7.8,0-9.753ZM20.975,50.622a3.991,3.991,0,0,1-2.248,2.248c-1.557.617-5.251.475-6.971.475s-5.42.137-6.971-.475a3.991,3.991,0,0,1-2.248-2.248c-.617-1.557-.475-5.251-.475-6.971s-.137-5.42.475-6.971a3.991,3.991,0,0,1,2.248-2.248c1.557-.617,5.251-.475,6.971-.475s5.42-.137,6.971.475a3.991,3.991,0,0,1,2.248,2.248c.617,1.557.475,5.251.475,6.971S21.593,49.07,20.975,50.622Z" transform="translate(0.075 -31.825)"/>
</svg>
