<svg xmlns="http://www.w3.org/2000/svg" width="22" height="22" viewBox="0 0 22 22">
  <g id="location-pin" transform="translate(0 -0.5)">
    <path id="Path_22" data-name="Path 22" d="M107.415,11.014l4.531,6.046a.644.644,0,0,0,1.006,0l4.531-6.046a6.376,6.376,0,0,0,1.411-4.025,6.445,6.445,0,1,0-12.891,0,6.376,6.376,0,0,0,1.411,4.025Zm5.034-7.248a3.223,3.223,0,1,1-3.223,3.223A3.226,3.226,0,0,1,112.449,3.766Zm0,0" transform="translate(-101.449 0)" fill="#fff"/>
    <path id="Path_23" data-name="Path 23" d="M212.934,110.367A1.934,1.934,0,1,0,211,108.434,1.936,1.936,0,0,0,212.934,110.367Zm0,0" transform="translate(-201.934 -101.445)" fill="#fff"/>
    <path id="Path_24" data-name="Path 24" d="M.645,281.851H21.356a.644.644,0,0,0,.62-.821l-2.621-9.066a.645.645,0,0,0-.62-.468H16.8l-3.864,5.156h0a.645.645,0,1,1,0,1.289H9.066a.645.645,0,1,1,0-1.289h0L5.2,271.5H3.266a.645.645,0,0,0-.62.468L.025,281.03a.644.644,0,0,0,.62.821Zm14.412-6.3,1.289-1.289a.644.644,0,0,1,.456-.189H18.09a.645.645,0,1,1,0,1.289H17.068l-1.1,1.1a.644.644,0,1,1-.911-.911Zm.456,2.389H18.09a.645.645,0,0,1,0,1.289H15.512a.645.645,0,0,1,0-1.289Zm-11.6-3.867H5.2a.644.644,0,0,1,.456.189l1.289,1.289a.644.644,0,1,1-.911.911l-1.1-1.1H3.91a.645.645,0,1,1,0-1.289Zm0,3.867H6.488a.645.645,0,0,1,0,1.289H3.91a.645.645,0,0,1,0-1.289Zm0,0" transform="translate(0 -259.351)" fill="#fff" opacity="0.4"/>
  </g>
</svg>
