<svg width="80" height="80" viewBox="0 0 80 80" fill="none" xmlns="http://www.w3.org/2000/svg">

<g id="money-bag">
<path id="Path 150" d="M30.625 26.498C29.7956 26.4832 28.966 26.5143 28.14 26.591H28C12.625 28.044 0 42.638 0 58.904C0 77.798 17.547 79.998 30.625 79.998C43.61 79.998 58.75 78.03 60.859 62.514C63.059 44.326 48.625 26.498 30.625 26.498Z" fill="#B38224"/>
<path id="Path 151" d="M60.859 62.516C58.75 78.031 43.61 79.998 30.625 79.998V26.498C48.625 26.498 63.062 44.328 60.859 62.516Z" fill="#AB7C22"/>
<path id="Path 152" d="M46.891 7.78099L42.203 22H19.05L14.36 7.78099C14.23 7.43342 14.1877 7.05918 14.2367 6.69134C14.2857 6.32351 14.4245 5.97341 14.641 5.67199C14.8646 5.37173 15.1542 5.12684 15.4874 4.95623C15.8207 4.78562 16.1887 4.69385 16.563 4.68799H24.016C24.4944 3.3164 25.3877 2.12761 26.5719 1.28642C27.7562 0.445235 29.1729 -0.00668335 30.6255 -0.00668335C32.0781 -0.00668335 33.4948 0.445235 34.6791 1.28642C35.8633 2.12761 36.7566 3.3164 37.235 4.68799H44.688C45.0623 4.69385 45.4303 4.78562 45.7636 4.95623C46.0968 5.12684 46.3864 5.37173 46.61 5.67199C46.8265 5.97341 46.9653 6.32351 47.0143 6.69134C47.0633 7.05918 47.021 7.43342 46.891 7.78099V7.78099Z" fill="#B38224"/>
<path id="Path 153" d="M46.891 7.781L42.203 22H30.625V0C32.0747 0.00755266 33.4869 0.461528 34.6694 1.30016C35.852 2.1388 36.7474 3.32137 37.234 4.687H44.687C45.0613 4.69285 45.4293 4.78462 45.7626 4.95523C46.0958 5.12584 46.3854 5.37073 46.609 5.671C46.8255 5.97241 46.9643 6.32251 47.0133 6.69035C47.0623 7.05818 47.02 7.43243 46.89 7.78L46.891 7.781Z" fill="#AB7C22"/>
<path id="rotate" d="M37.9977 59.9536C37.9993 61.4037 37.4923 62.8185 36.5466 64.0025C35.601 65.1866 34.2634 66.0815 32.7186 66.5638V68.6879C32.7042 69.3055 32.417 69.8935 31.9185 70.3257C31.4201 70.7579 30.7501 71 30.0523 71C29.3546 71 28.6846 70.7579 28.1862 70.3257C27.6877 69.8935 27.4005 69.3055 27.3861 68.6879V66.6111C25.8262 66.1232 24.4733 65.2231 23.51 64.0324C22.5467 62.8418 22.0197 61.418 22 59.9536C22.0021 59.328 22.2837 58.7287 22.7834 58.2863C23.2831 57.844 23.9602 57.5946 24.6669 57.5928C25.0181 57.5897 25.3664 57.6486 25.6915 57.7662C26.0167 57.8837 26.3121 58.0575 26.5604 58.2773C26.8087 58.4972 27.0051 58.7587 27.1378 59.0465C27.2706 59.3343 27.3372 59.6427 27.3337 59.9536C27.3446 60.5767 27.629 61.1717 28.1268 61.6123C28.6246 62.053 29.2967 62.3049 30.0006 62.3145H30.054C30.753 62.3039 31.4192 62.0503 31.9088 61.6086C32.3984 61.1669 32.6721 60.5724 32.6708 59.9536C32.6758 59.6461 32.6119 59.3407 32.4827 59.0552C32.3536 58.7697 32.1619 58.5097 31.9185 58.2902C31.6752 58.0706 31.3851 57.896 31.0651 57.7763C30.7451 57.6566 30.4015 57.5942 30.054 57.5928H30.0006C27.8838 57.5791 25.8581 56.8286 24.3612 55.5035C22.8644 54.1784 22.0166 52.3852 22.0011 50.5113C22.0055 49.0437 22.5266 47.6138 23.492 46.4207C24.4574 45.2276 25.819 44.3307 27.3872 43.8548V40.3608C27.3872 39.7347 27.6682 39.1342 28.1683 38.6915C28.6684 38.2487 29.3468 38 30.054 38C30.7613 38 31.4397 38.2487 31.9398 38.6915C32.4399 39.1342 32.7209 39.7347 32.7209 40.3608V43.8548C34.2685 44.3474 35.6063 45.2513 36.5513 46.4429C37.4963 47.6344 38.0023 49.0554 38 50.5113C37.9982 51.1369 37.7166 51.7365 37.2169 52.1789C36.7172 52.6213 36.0399 52.8705 35.3331 52.8721C34.6292 52.8625 33.9572 52.6107 33.4594 52.17C32.9616 51.7293 32.6771 51.1344 32.6663 50.5113C32.6712 50.2037 32.6073 49.8984 32.4782 49.6129C32.3491 49.3273 32.1573 49.0673 31.914 48.8478C31.6707 48.6283 31.3806 48.4536 31.0606 48.3339C30.7405 48.2142 30.3969 48.1518 30.0495 48.1504H29.996C29.2894 48.1523 28.6123 48.4016 28.1126 48.8439C27.6129 49.2863 27.3313 49.8857 27.3292 50.5113C27.34 51.1344 27.6245 51.7293 28.1223 52.17C28.6201 52.6107 29.2921 52.8625 29.996 52.8721H30.0495C32.1639 52.879 34.1888 53.6288 35.6792 54.9566C37.1695 56.2845 38.0035 58.0818 37.9977 59.9536Z" fill="#FFDAAA"/>
<g id="translate">
<path id="Path 155" d="M80 47.188C79.9966 48.43 79.5016 49.6202 78.6234 50.4984C77.7452 51.3767 76.555 51.8716 75.313 51.875L63.438 56.563L51.719 51.876C50.4758 51.876 49.2835 51.3821 48.4044 50.5031C47.5254 49.624 47.0315 48.4317 47.0315 47.1885C47.0315 45.9453 47.5254 44.753 48.4044 43.8739C49.2835 42.9949 50.4758 42.501 51.719 42.501H75.313C76.555 42.5044 77.7452 42.9994 78.6234 43.8776C79.5016 44.7558 79.9966 45.946 80 47.188V47.188Z" fill="#FFDAAA"/>
<path id="Path 156" d="M80.001 47.188C79.9976 48.43 79.5027 49.6202 78.6244 50.4984C77.7462 51.3767 76.556 51.8716 75.314 51.875L63.438 56.563V42.5H75.313C76.5554 42.5032 77.746 42.9981 78.6244 43.8766C79.5029 44.7551 79.9978 45.9456 80.001 47.188Z" fill="#F6D3A5"/>
<path id="Path 157" d="M80 56.563C79.9968 57.8052 79.502 58.9956 78.6238 59.8741C77.7455 60.7525 76.5552 61.2476 75.313 61.251L63.438 65.938L51.719 61.251C50.4876 61.233 49.3128 60.7312 48.4484 59.8541C47.584 58.977 47.0995 57.795 47.0995 56.5635C47.0995 55.332 47.584 54.15 48.4484 53.2729C49.3128 52.3958 50.4876 51.894 51.719 51.876H75.313C76.555 51.8794 77.7452 52.3744 78.6234 53.2526C79.5016 54.1308 79.9966 55.321 80 56.563V56.563Z" fill="#FDBF00"/>
<path id="Path 158" d="M80.001 56.563C79.9978 57.8052 79.503 58.9956 78.6248 59.8741C77.7465 60.7525 76.5562 61.2476 75.314 61.251L63.438 65.937V51.875H75.313C76.5554 51.8782 77.746 52.3731 78.6244 53.2516C79.5029 54.1301 79.9978 55.3206 80.001 56.563V56.563Z" fill="#FF9100"/>
<path id="Path 159" d="M80 65.938C79.9968 67.1802 79.502 68.3706 78.6238 69.2491C77.7455 70.1275 76.5552 70.6226 75.313 70.626L63.438 75.313L51.719 70.626C50.4758 70.626 49.2835 70.1321 48.4044 69.2531C47.5254 68.374 47.0315 67.1817 47.0315 65.9385C47.0315 64.6953 47.5254 63.503 48.4044 62.6239C49.2835 61.7449 50.4758 61.251 51.719 61.251H75.313C76.555 61.2544 77.7452 61.7494 78.6234 62.6276C79.5016 63.5058 79.9966 64.696 80 65.938V65.938Z" fill="#FFDAAA"/>
<path id="Path 160" d="M80.001 65.938C79.9978 67.1802 79.503 68.3706 78.6248 69.2491C77.7465 70.1275 76.5562 70.6226 75.314 70.626L63.438 75.312V61.25H75.313C76.5554 61.2532 77.746 61.7481 78.6244 62.6266C79.5029 63.5051 79.9978 64.6956 80.001 65.938V65.938Z" fill="#F6D3A5"/>
<path id="Path 161" d="M80 75.313C79.9966 76.555 79.5016 77.7452 78.6234 78.6234C77.7452 79.5017 76.555 79.9966 75.313 80H51.719C50.4758 80 49.2835 79.5062 48.4044 78.6271C47.5254 77.748 47.0315 76.5557 47.0315 75.3125C47.0315 74.0693 47.5254 72.877 48.4044 71.9979C49.2835 71.1188 50.4758 70.625 51.719 70.625H75.313C76.5552 70.6284 77.7455 71.1235 78.6238 72.0019C79.502 72.8804 79.9968 74.0708 80 75.313V75.313Z" fill="#FDBF00"/>
<path id="Path 162" d="M80.001 75.313C79.9976 76.555 79.5027 77.7452 78.6244 78.6234C77.7462 79.5017 76.556 79.9966 75.314 80H63.438V70.625H75.313C76.5554 70.6282 77.746 71.1231 78.6244 72.0016C79.5029 72.8801 79.9978 74.0706 80.001 75.313V75.313Z" fill="#FF9100"/>
</g>
<path id="Path 163" d="M47.031 23.593C47.0276 24.835 46.5327 26.0252 45.6544 26.9034C44.7762 27.7817 43.586 28.2766 42.344 28.28H18.906C17.6628 28.28 16.4705 27.7861 15.5914 26.9071C14.7124 26.028 14.2185 24.8357 14.2185 23.5925C14.2185 22.3493 14.7124 21.157 15.5914 20.2779C16.4705 19.3989 17.6628 18.905 18.906 18.905H42.343C43.5854 18.9082 44.7759 19.4031 45.6544 20.2816C46.5329 21.1601 47.0278 22.3506 47.031 23.593V23.593Z" fill="#FFDAAA"/>
<g id="Group 95">
<path id="Path 164" d="M37.609 59.609C37.6102 61.0486 37.1644 62.453 36.3333 63.6284C35.5022 64.8038 34.3266 65.6922 32.969 66.171V68.278C32.9725 68.5869 32.9142 68.8934 32.7977 69.1796C32.6812 69.4657 32.5087 69.7257 32.2904 69.9443C32.0721 70.1629 31.8123 70.3357 31.5263 70.4526C31.2404 70.5695 30.9339 70.6281 30.625 70.625V61.953C31.2393 61.9425 31.8249 61.6908 32.2552 61.2522C32.6856 60.8137 32.9261 60.2234 32.925 59.609C32.9294 59.3037 32.8732 59.0005 32.7597 58.717C32.6462 58.4336 32.4776 58.1754 32.2638 57.9574C32.0499 57.7394 31.795 57.5661 31.5137 57.4472C31.2324 57.3284 30.9304 57.2664 30.625 57.265V52.578C32.4831 52.5854 34.2624 53.3301 35.5719 54.6484C36.8814 55.9667 37.614 57.7509 37.609 59.609V59.609Z" fill="#F6D3A5"/>
<path id="Path 165" d="M37.609 50.234C37.6074 50.8552 37.36 51.4505 36.9207 51.8897C36.4815 52.3289 35.8862 52.5764 35.265 52.578C34.6463 52.5685 34.0556 52.3184 33.6181 51.8809C33.1806 51.4434 32.9305 50.8527 32.921 50.234C32.9254 49.9287 32.8692 49.6255 32.7557 49.342C32.6422 49.0586 32.4736 48.8004 32.2598 48.5824C32.0459 48.3644 31.791 48.191 31.5097 48.0722C31.2284 47.9534 30.9264 47.8914 30.621 47.89V37.812C30.9297 37.8089 31.2359 37.8675 31.5216 37.9842C31.8074 38.1009 32.067 38.2734 32.2853 38.4917C32.5036 38.71 32.6761 38.9696 32.7928 39.2554C32.9095 39.5411 32.9681 39.8473 32.965 40.156V43.625C34.326 44.1135 35.5027 45.0107 36.334 46.1938C37.1654 47.3769 37.6107 48.788 37.609 50.234V50.234Z" fill="#F6D3A5"/>
<path id="Path 166" d="M47.031 23.593C47.0276 24.835 46.5327 26.0252 45.6544 26.9034C44.7762 27.7817 43.586 28.2766 42.344 28.28H30.625V18.906H42.344C43.586 18.9094 44.7762 19.4043 45.6544 20.2826C46.5327 21.1608 47.0276 22.351 47.031 23.593V23.593Z" fill="#F6D3A5"/>
</g>
</g>
</svg>
