<svg width="40" height="40" viewBox="0 0 40 40" fill="none" xmlns="http://www.w3.org/2000/svg">
<style>
    #cliping{
        transform-origin: center;
        transform-box: fill-box;
        animation: sideClip_2 3s linear infinite
    }
    svg{
        transform-origin: center;
        transform-box: fill-box;
        animation: rotation 3s linear infinite
    }
    @keyframes rotation {
        0% {
            transform: rotate(0deg);
        }

        50% {
            transform: rotate(-5deg);
        }

        100% {
            transform: rotate(0deg);
        }
    }
    @keyframes sideClip_2 {
        0% {
            clip-path: polygon(100% 0, 100% 0%, 100% 100%, 100% 100%);
        }
        50% {
            clip-path: polygon(100% 0, 42% 0, 42% 100%, 100% 100%);
        }
        100% {
            clip-path: polygon(100% 0, 0 0, 0 100%, 100% 100%);
        }
    }
</style>
<g id="phone-call 1" clip-path="url(#clip0_386_26)">
<path id="phone" d="M9.834 26.466C10.207 26.0905 10.6505 25.7926 11.1392 25.5892C11.6278 25.3859 12.1518 25.2812 12.681 25.2812C13.2102 25.2812 13.7342 25.3859 14.2228 25.5892C14.7115 25.7926 15.155 26.0905 15.528 26.466L17.471 28.413C19.6586 27.0216 21.685 25.3916 23.513 23.553C25.3485 21.7202 26.9752 19.6894 28.363 17.498L26.42 15.551C26.0452 15.1764 25.748 14.7316 25.5452 14.2421C25.3423 13.7526 25.2379 13.2279 25.2379 12.698C25.2379 12.1681 25.3423 11.6434 25.5452 11.1539C25.748 10.6644 26.0452 10.2196 26.42 9.845L30.212 6.059C30.5802 5.68181 31.0207 5.38273 31.5071 5.17964C31.9935 4.97655 32.5159 4.87362 33.043 4.877C33.5725 4.87622 34.0968 4.98016 34.586 5.18285C35.0751 5.38553 35.5193 5.68296 35.893 6.058L37.715 7.87C38.5842 8.80631 39.2329 9.92522 39.6135 11.1447C39.9942 12.3643 40.0972 13.6535 39.915 14.918C39.486 19.953 36.19 26.008 31.115 31.109C26.04 36.21 19.923 39.502 14.899 39.985C14.5243 40.0051 14.1487 40.0051 13.774 39.985C12.6923 40.0306 11.6124 39.8594 10.5978 39.4816C9.58325 39.1038 8.65443 38.527 7.866 37.785L6.056 35.958C5.68088 35.5824 5.38363 35.1364 5.18131 34.6456C4.97898 34.1548 4.87557 33.6289 4.877 33.098C4.87392 32.5709 4.97669 32.0486 5.17921 31.5619C5.38173 31.0753 5.67989 30.6343 6.056 30.265L9.834 26.466Z" fill="#B38224"/>
<g id="cliping">
<path id="Path 208" opacity="0.4" d="M5.574 5.561C7.33427 3.79404 9.42687 2.39296 11.7312 1.43853C14.0355 0.484102 16.5059 -0.00480395 19 -3.50911e-06C19.1693 -0.00476159 19.3379 0.0244777 19.4957 0.0859853C19.6535 0.147493 19.7974 0.24002 19.9188 0.358096C20.0403 0.476172 20.1368 0.617399 20.2027 0.773427C20.2686 0.929455 20.3026 1.09712 20.3026 1.2665C20.3026 1.43588 20.2686 1.60354 20.2027 1.75957C20.1368 1.91559 20.0403 2.05682 19.9188 2.1749C19.7974 2.29297 19.6535 2.3855 19.4957 2.44701C19.3379 2.50852 19.1693 2.53775 19 2.533C16.8259 2.53305 14.6733 2.96364 12.6664 3.79992C10.6595 4.63621 8.83813 5.86162 7.3073 7.40546C5.77647 8.94931 4.56652 10.781 3.74726 12.7949C2.928 14.8088 2.51565 16.9649 2.534 19.139C2.52473 19.4687 2.38724 19.7819 2.15073 20.0118C1.91423 20.2418 1.59737 20.3704 1.2675 20.3704C0.937635 20.3704 0.620774 20.2418 0.38427 20.0118C0.147766 19.7819 0.0102675 19.4687 0.00100121 19.139C-0.0232137 16.6184 0.457409 14.1184 1.41454 11.7865C2.37167 9.45453 3.78595 7.33778 5.574 5.561V5.561Z" fill="#B38224"/>
<path id="Path 209" opacity="0.4" d="M13.356 13.407C12.6372 14.1215 12.0685 14.9725 11.6835 15.91C11.2985 16.8475 11.1048 17.8525 11.114 18.866C11.1047 19.1957 10.9672 19.5089 10.7307 19.7388C10.4942 19.9688 10.1774 20.0974 9.8475 20.0974C9.51763 20.0974 9.20077 19.9688 8.96427 19.7388C8.72776 19.5089 8.59027 19.1957 8.581 18.866C8.56419 17.5247 8.81387 16.1933 9.31557 14.9493C9.81727 13.7052 10.561 12.5731 11.5036 11.6186C12.4462 10.6642 13.569 9.90645 14.8067 9.38929C16.0445 8.87214 17.3726 8.60589 18.714 8.606C18.8833 8.60124 19.0519 8.63048 19.2097 8.69199C19.3675 8.7535 19.5114 8.84602 19.6328 8.9641C19.7543 9.08217 19.8508 9.2234 19.9167 9.37943C19.9826 9.53546 20.0166 9.70312 20.0166 9.8725C20.0166 10.0419 19.9826 10.2095 19.9167 10.3656C19.8508 10.5216 19.7543 10.6628 19.6328 10.7809C19.5114 10.899 19.3675 10.9915 19.2097 11.053C19.0519 11.1145 18.8833 11.1438 18.714 11.139C17.7158 11.1465 16.7288 11.3505 15.8095 11.7395C14.8902 12.1285 14.0564 12.6948 13.356 13.406V13.407Z" fill="#B38224"/>
</g>
</g>
<defs>
<clipPath id="clip0_386_26">
<rect width="40" height="40" fill="white"/>
</clipPath>
</defs>
</svg>
