<svg width="715" height="648" viewBox="0 0 715 648" fill="none" xmlns="http://www.w3.org/2000/svg">
<style>
#rotate , #opacity{
    transform-origin: center;
    transform-box: fill-box;
}
#rotate {   
    animation: spin 5s ease-in-out infinite;
}
#opacity{
    animation: opacity 1s linear infinite
}
@keyframes opacity {
    0%,
    100% {
        opacity: 1;
    }

    50% {
        opacity: .6;
    }
}
@keyframes spin {
    0% , 100% {
        transform: rotate(0deg) translateX(0px);
    }

    50% {
        transform: rotate(20deg) translateX(-5px);
    }
}
</style>
<g id="rotate">
<g id="Group 148">
<path id="Path 245" d="M241.279 210.937L169.05 188.408C167.564 187.944 165.956 188.066 164.558 188.75L87.8398 226.257C86.8276 226.754 85.9729 227.522 85.3706 228.475C84.7683 229.428 84.4421 230.53 84.428 231.657C84.414 232.785 84.7128 233.894 85.2912 234.862C85.8696 235.83 86.7051 236.619 87.7047 237.14L147.496 268.247L241.279 210.937Z" fill="#F99746"/>
<path id="Path 246" d="M-279.655 421.912C-279.655 421.912 440.374 91.8883 472.263 93.7156C504.153 95.5429 564.871 113.205 580.409 109.26C595.946 105.314 652.696 100.829 648.575 143.224C644.454 185.619 49.0503 465.805 -30.2912 459.488C-109.633 453.172 -306.367 453.504 -306.367 453.504C-306.367 453.504 -330.165 431.43 -279.655 421.912Z" fill="#38568A"/>
<path id="Path 249" d="M161.153 466.974C161.153 466.974 191.71 489.606 229.582 479.99C267.455 470.374 311.406 448.05 316.744 432.429C322.082 416.808 315.587 313.08 242.294 346.854C169.001 380.628 90.662 448.278 161.153 466.974Z" fill="#233862"/>
<path id="Path 250" d="M92.0785 375.69L263.471 298.34L162.178 530.401C161.475 532.01 160.447 533.456 159.158 534.648C157.869 535.84 156.347 536.752 154.688 537.326L49.4817 573.738C47.2492 574.51 44.8457 574.645 42.5408 574.127C40.2359 573.609 38.121 572.459 36.4334 570.806C34.7458 569.153 33.5522 567.062 32.9869 564.769C32.4216 562.475 32.5067 560.069 33.2328 557.821L92.0785 375.69Z" fill="#F99746"/>
<path id="Path 251" d="M307.563 437.668C308.031 437.651 308.492 437.554 308.927 437.382C311.246 436.452 313.017 433.349 314.188 428.163C317.962 411.474 314.681 378.644 295.572 357.917C292.811 354.907 289.33 352.649 285.457 351.355C281.583 350.06 277.444 349.772 273.429 350.516C266.691 351.758 258.741 355.888 259.116 368.538C259.712 388.366 288.753 426.984 301.793 435.523C304.094 437.023 305.997 437.734 307.563 437.668ZM276.847 353.521C279.876 353.397 282.896 353.93 285.7 355.084C288.503 356.237 291.024 357.984 293.088 360.204C311.169 379.816 314.401 411.902 310.892 427.415C309.878 431.911 308.52 433.907 307.669 434.247C307.558 434.294 306.554 434.601 303.646 432.695C290.083 423.811 263.022 385.947 262.496 368.431C262.245 360.084 266.022 355.312 274.038 353.836C274.967 353.666 275.907 353.56 276.85 353.521L276.847 353.521Z" fill="#5F87C1"/>
<g id="Group 147">
<g id="Group 146">
<path id="Path 253" d="M-5.59734 357.427C-6.34389 354.482 -5.88992 351.36 -4.33552 348.75C-2.78112 346.139 -0.253581 344.253 2.69148 343.505L3.39725 343.326C6.34267 342.578 9.46446 343.031 12.076 344.585C14.6875 346.139 16.575 348.666 17.3231 351.612L19.1651 358.866C19.9119 361.811 19.4584 364.932 17.9044 367.543C16.3504 370.153 13.8232 372.04 10.8784 372.787L10.1727 372.967C7.22759 373.713 4.10647 373.259 1.49587 371.705C-1.11472 370.151 -3.00099 367.624 -3.74845 364.679L-5.59734 357.427Z" fill="#466AA5"/>
<path id="Path 254" d="M36.1349 343.35C35.3884 340.405 35.8421 337.284 37.3963 334.674C38.9505 332.063 41.4779 330.177 44.4228 329.429L45.1295 329.25C48.0749 328.502 51.1967 328.955 53.8082 330.509C56.4198 332.062 58.307 334.59 59.0551 337.535L60.8973 344.79C61.6436 347.735 61.1898 350.856 59.6356 353.466C58.0815 356.077 55.5542 357.963 52.6095 358.711L51.9037 358.89C48.9581 359.638 45.8363 359.185 43.2246 357.631C40.613 356.077 38.7255 353.549 37.9776 350.604L36.1349 343.35Z" fill="#466AA5"/>
<path id="Path 255" d="M76.2025 322.722C75.8321 321.264 75.7528 319.747 75.9687 318.257C76.1847 316.768 76.6918 315.336 77.4612 314.043C78.2307 312.749 79.2475 311.62 80.4533 310.72C81.6592 309.82 83.0305 309.166 84.4891 308.795L85.196 308.617C88.1414 307.869 91.2632 308.322 93.8748 309.876C96.4863 311.43 98.3738 313.957 99.1219 316.902L100.964 324.156C101.711 327.101 101.259 330.223 99.7047 332.835C98.1509 335.446 95.6232 337.334 92.6778 338.082L91.9711 338.261C90.5127 338.632 88.9956 338.711 87.5065 338.495C86.0173 338.279 84.5853 337.772 83.2922 337.003C81.9991 336.233 80.8701 335.217 79.9698 334.011C79.0696 332.805 78.4158 331.434 78.0455 329.976L76.2025 322.722Z" fill="#466AA5"/>
<path id="Path 256" d="M113.829 306.199C113.081 303.253 113.534 300.131 115.088 297.519C116.641 294.908 119.169 293.02 122.115 292.272L122.82 292.094C125.766 291.346 128.888 291.798 131.5 293.352C134.111 294.906 135.999 297.434 136.747 300.379L138.588 307.633C139.335 310.578 138.882 313.699 137.328 316.31C135.774 318.92 133.246 320.807 130.302 321.555L129.595 321.734C128.136 322.105 126.619 322.184 125.13 321.968C123.641 321.752 122.209 321.245 120.916 320.476C119.623 319.706 118.494 318.69 117.594 317.484C116.693 316.278 116.039 314.907 115.669 313.449L113.829 306.199Z" fill="#466AA5"/>
<path id="Path 257" d="M158.002 288.012C157.256 285.067 157.709 281.946 159.264 279.335C160.818 276.725 163.345 274.838 166.29 274.091L166.996 273.912C168.454 273.542 169.971 273.462 171.46 273.678C172.95 273.894 174.381 274.402 175.675 275.171C176.968 275.94 178.097 276.957 178.997 278.163C179.897 279.368 180.551 280.74 180.921 282.198L182.764 289.453C183.51 292.398 183.056 295.518 181.502 298.129C179.948 300.74 177.42 302.626 174.476 303.374L173.769 303.553C170.824 304.3 167.703 303.846 165.093 302.292C162.482 300.738 160.596 298.211 159.848 295.266L158.002 288.012Z" fill="#466AA5"/>
<path id="Rectangle 85" d="M207.539 256.642C209.043 256.259 210.608 256.177 212.144 256.4C213.681 256.622 215.158 257.145 216.492 257.938C217.826 258.732 218.991 259.78 219.92 261.024C220.849 262.267 221.524 263.682 221.906 265.186L223.571 271.736C224.343 274.774 223.876 277.995 222.274 280.69C220.672 283.384 218.065 285.332 215.027 286.105V286.105C211.988 286.877 208.767 286.411 206.072 284.809C203.377 283.206 201.429 280.599 200.656 277.56L198.992 271.012C198.22 267.973 198.686 264.752 200.289 262.057C201.892 259.362 204.5 257.414 207.539 256.642V256.642Z" fill="#466AA5"/>
<path id="Path 258" d="M238.972 250.027C238.224 247.081 238.677 243.959 240.231 241.348C241.785 238.736 244.313 236.849 247.258 236.101L247.964 235.922C250.909 235.175 254.03 235.629 256.641 237.183C259.251 238.737 261.138 241.265 261.885 244.21L263.728 251.463C264.476 254.408 264.023 257.53 262.469 260.142C260.915 262.754 258.387 264.641 255.441 265.389L254.735 265.567C253.277 265.938 251.76 266.017 250.27 265.802C248.781 265.586 247.349 265.079 246.056 264.309C244.763 263.54 243.634 262.523 242.733 261.317C241.833 260.112 241.179 258.74 240.809 257.282L238.972 250.027Z" fill="#466AA5"/>
<path id="Path 259" d="M277.426 236.778C276.678 233.833 277.131 230.711 278.685 228.099C280.239 225.487 282.767 223.6 285.712 222.852L286.419 222.673C289.364 221.926 292.485 222.38 295.095 223.934C297.706 225.488 299.592 228.015 300.34 230.959L302.183 238.213C302.931 241.157 302.479 244.278 300.926 246.89C299.373 249.501 296.847 251.389 293.903 252.138L293.197 252.317C290.252 253.063 287.132 252.609 284.521 251.055C281.911 249.501 280.024 246.974 279.276 244.03L277.426 236.778Z" fill="#466AA5"/>
<path id="Path 260" d="M318.329 219.422C317.582 216.477 318.036 213.356 319.59 210.746C321.144 208.135 323.671 206.249 326.616 205.501L327.321 205.322C328.78 204.951 330.297 204.872 331.786 205.088C333.275 205.304 334.707 205.811 336 206.581C337.293 207.35 338.422 208.366 339.323 209.572C340.223 210.778 340.877 212.149 341.247 213.608L343.09 220.862C343.837 223.807 343.383 226.928 341.829 229.539C340.275 232.149 337.747 234.036 334.802 234.783L334.097 234.962C331.152 235.709 328.031 235.255 325.42 233.701C322.81 232.147 320.923 229.62 320.176 226.676L318.329 219.422Z" fill="#466AA5"/>
<path id="Path 261" d="M358.396 198.794C357.649 195.849 358.102 192.727 359.656 190.115C361.21 187.503 363.738 185.616 366.683 184.868L367.39 184.689C370.335 183.942 373.455 184.396 376.066 185.95C378.676 187.504 380.563 190.031 381.311 192.975L383.153 200.229C383.9 203.175 383.447 206.297 381.893 208.908C380.339 211.52 377.812 213.407 374.866 214.155L374.159 214.335C371.214 215.082 368.092 214.629 365.481 213.076C362.869 211.522 360.981 208.994 360.233 206.049L358.396 198.794Z" fill="#466AA5"/>
<path id="Path 262" d="M396.855 185.544C396.484 184.086 396.405 182.569 396.62 181.079C396.836 179.59 397.344 178.158 398.113 176.865C398.883 175.572 399.9 174.443 401.105 173.542C402.311 172.642 403.683 171.989 405.141 171.618L405.848 171.439C408.793 170.692 411.914 171.146 414.524 172.7C417.135 174.254 419.021 176.781 419.769 179.726L421.612 186.979C422.358 189.924 421.904 193.045 420.35 195.656C418.795 198.267 416.268 200.153 413.323 200.9L412.617 201.08C409.672 201.827 406.55 201.375 403.938 199.821C401.327 198.267 399.439 195.739 398.691 192.794L396.855 185.544Z" fill="#466AA5"/>
</g>
<path id="opacity" d="M530.938 103.674L461.526 143.373C458.998 144.82 457.057 147.105 456.039 149.834C455.021 152.562 454.989 155.561 455.951 158.31C458.316 165.05 461.333 172.572 462.704 171.523C465.128 169.667 574.65 110.206 574.65 110.206L530.938 103.674Z" fill="#F99746"/>
</g>
</g>
</g>
</svg>
