<svg xmlns="http://www.w3.org/2000/svg" width="22" height="22" viewBox="0 0 22 22">
  <g id="price-tag" transform="translate(0 0)">
    <path id="Path_17" data-name="Path 17" d="M204.323,151.736,203.17,150.2l-.642,4.491a1.945,1.945,0,0,1-.547,1.094l-7.9,7.9a3.628,3.628,0,0,1-2.583,1.069,3.687,3.687,0,0,1-.855-.1,2.363,2.363,0,0,0,1.992,1.094h9.453a2.366,2.366,0,0,0,2.363-2.363V152.123A.645.645,0,0,0,204.323,151.736Z" transform="translate(-182.452 -143.744)" fill="#fff" opacity="0.4"/>
    <circle id="Ellipse_1" data-name="Ellipse 1" cx="0.645" cy="0.645" r="0.645" transform="translate(12.656 9.419)" fill="#fff"/>
    <circle id="Ellipse_2" data-name="Ellipse 2" cx="0.645" cy="0.645" r="0.645" transform="translate(5.364 9.419)" fill="#fff"/>
    <path id="Path_18" data-name="Path 18" d="M10.718,19.026l7.9-7.9a.645.645,0,0,0,.182-.365l.912-6.381a.645.645,0,0,0-.182-.547L18.162,2.467,16.339,4.29l.456.456a.645.645,0,1,1-.911.911L14.06,3.835a.645.645,0,1,1,.911-.911l.456.456L17.25,1.556,15.883.189a.645.645,0,0,0-.547-.182L8.956.918a.645.645,0,0,0-.365.182L.691,9a2.366,2.366,0,0,0,0,3.342l6.684,6.684a2.366,2.366,0,0,0,3.342,0ZM13.3,8.13a1.934,1.934,0,1,1-1.934,1.934A1.936,1.936,0,0,1,13.3,8.13ZM6.008,12a1.934,1.934,0,1,1,1.934-1.934A1.936,1.936,0,0,1,6.008,12Zm2.127,3.269a.645.645,0,0,1-.612-.849L10.562,5.3a.645.645,0,0,1,1.223.408L8.747,14.825A.645.645,0,0,1,8.135,15.266Z" transform="translate(0 0)" fill="#fff"/>
    <path id="Path_19" data-name="Path 19" d="M403.736,1.1a.645.645,0,0,0-.911-.911l-1.367,1.367.911.911Z" transform="translate(-384.207 0)" fill="#fff"/>
  </g>
</svg>
