<svg xmlns="http://www.w3.org/2000/svg" width="80.079" height="80" viewBox="0 0 80.079 80">
  <g id="bus_1_" data-name="bus (1)" transform="translate(0 -0.25)">
    <path id="Path_4" data-name="Path 4" d="M79.391,14.317l-3.91-3.891a2.352,2.352,0,0,0-1.659-.684H70.83A10.156,10.156,0,0,0,60.685.25H19.394A10.156,10.156,0,0,0,9.249,9.743H6.256a2.351,2.351,0,0,0-1.659.684L.687,14.317A2.328,2.328,0,0,0,0,15.968V27.639a2.346,2.346,0,0,0,4.692,0v-10.7l2.536-2.523h2v28.15c9.714,1.914,52.182,1.86,61.623,0V14.412h2l2.536,2.523v10.7a2.346,2.346,0,0,0,4.692,0V15.968A2.328,2.328,0,0,0,79.391,14.317Z" transform="translate(0)"/>
    <path id="Path_5" data-name="Path 5" d="M76,480.66v.948a3.894,3.894,0,0,0,3.891,3.89H87.2a3.894,3.894,0,0,0,3.891-3.89v-.856C76.5,480.721,77.082,480.822,76,480.66Z" transform="translate(-64.173 -405.248)"/>
    <path id="Path_6" data-name="Path 6" d="M339,480.752v.856a3.894,3.894,0,0,0,3.891,3.89H350.2a3.894,3.894,0,0,0,3.891-3.89v-.948C353.013,480.822,353.6,480.721,339,480.752Z" transform="translate(-285.844 -405.248)"/>
    <path id="Path_7" data-name="Path 7" d="M59,302.6v8.633l14.812,2.551a2.345,2.345,0,0,1,1.837,1.59l3.328,10.358h21.762l3.327-10.358a2.345,2.345,0,0,1,1.837-1.59l14.811-2.551V302.6C109.4,304.4,70.323,304.4,59,302.6Zm37.906,11.461h-14.1a2.334,2.334,0,1,1,0-4.668h14.1a2.334,2.334,0,1,1,0,4.668Z" transform="translate(-49.818 -254.899)" opacity="0.4"/>
    <path id="Path_8" data-name="Path 8" d="M356.958,398.288h11.056a3.9,3.9,0,0,0,3.891-3.89v-5.871L359.38,390.7Z" transform="translate(-301.007 -327.453)"/>
    <path id="Path_9" data-name="Path 9" d="M73.946,398.288l-2.422-7.59L59,388.527V394.4a3.9,3.9,0,0,0,3.891,3.89Z" transform="translate(-49.818 -327.453)"/>
  </g>
</svg>
