<svg xmlns="http://www.w3.org/2000/svg" width="79.688" height="80" viewBox="0 0 79.688 80">
  <g id="hotel" transform="translate(-1)">
    <path id="Path_239" data-name="Path 239" d="M211,422h4.688v14.063H211Z" transform="translate(-177.188 -356.063)" opacity="0.4"/>
    <path id="Path_240" data-name="Path 240" d="M271,422h4.688v14.063H271Z" transform="translate(-227.813 -356.063)" opacity="0.4"/>
    <path id="Path_241" data-name="Path 241" d="M420.063,242H406v42.188h14.063a2.344,2.344,0,0,0,2.344-2.344v-37.5A2.344,2.344,0,0,0,420.063,242Zm-3.516,30.469a2.344,2.344,0,0,1-4.687,0v-4.687a2.344,2.344,0,0,1,4.688,0Zm0-14.062a2.344,2.344,0,0,1-4.687,0v-4.687a2.344,2.344,0,0,1,4.688,0Z" transform="translate(-341.719 -204.188)"/>
    <path id="Path_242" data-name="Path 242" d="M3.344,242A2.344,2.344,0,0,0,1,244.344v37.5a2.344,2.344,0,0,0,2.344,2.344H17.406V242Zm8.2,30.469a2.344,2.344,0,0,1-4.687,0v-4.687a2.344,2.344,0,0,1,4.688,0Zm0-14.062a2.344,2.344,0,0,1-4.687,0v-4.687a2.344,2.344,0,0,1,4.688,0Z" transform="translate(0 -204.188)"/>
    <path id="Path_243" data-name="Path 243" d="M195.219,0H173.344A2.344,2.344,0,0,0,171,2.344V8.125h26.563V2.344A2.344,2.344,0,0,0,195.219,0Z" transform="translate(-143.438)" opacity="0.4"/>
    <path id="Path_244" data-name="Path 244" d="M136,84.344v64.844h7.031V132.781a2.344,2.344,0,0,1,2.344-2.344h18.75a2.344,2.344,0,0,1,2.344,2.344v16.406H173.5V84.344A2.344,2.344,0,0,0,171.156,82H138.344A2.344,2.344,0,0,0,136,84.344Zm11.719,39.063a2.344,2.344,0,0,1-4.687,0v-4.687a2.344,2.344,0,0,1,4.688,0Zm0-14.062a2.344,2.344,0,0,1-4.687,0v-4.687a2.344,2.344,0,0,1,4.688,0Zm0-14.062a2.344,2.344,0,0,1-4.687,0V90.594a2.344,2.344,0,0,1,4.688,0Zm9.375,28.125a2.344,2.344,0,0,1-4.687,0v-4.687a2.344,2.344,0,0,1,4.688,0Zm0-14.062a2.344,2.344,0,0,1-4.687,0v-4.687a2.344,2.344,0,0,1,4.688,0Zm0-14.062a2.344,2.344,0,0,1-4.687,0V90.594a2.344,2.344,0,0,1,4.688,0Zm9.375,28.125a2.344,2.344,0,0,1-4.687,0v-4.687a2.344,2.344,0,0,1,4.688,0Zm0-14.062a2.344,2.344,0,0,1-4.687,0v-4.687a2.344,2.344,0,0,1,4.688,0Zm0-14.062a2.344,2.344,0,0,1-4.687,0V90.594a2.344,2.344,0,0,1,4.688,0Z" transform="translate(-113.906 -69.188)"/>
  </g>
</svg>
