<svg xmlns="http://www.w3.org/2000/svg" width="80" height="80" viewBox="0 0 80 80">
  <g id="airplane" transform="translate(-0.001)">
    <path id="Path_10" data-name="Path 10" d="M104.228,1.277c-3.656-3.656-14.064.806-23.2,9.944L68.044,24.2A376,376,0,0,0,30.674,67.746a2.344,2.344,0,0,0,.241,3.031l3.813,3.813a2.344,2.344,0,0,0,3.031.241A375.918,375.918,0,0,0,81.3,37.462L94.285,24.479c9.138-9.138,13.6-19.546,9.944-23.2Z" transform="translate(-25.505 0)" opacity="0.4"/>
    <path id="Path_11" data-name="Path 11" d="M147.048,430.872l3.315-3.314a2.346,2.346,0,0,0,.617-2.228l-2.177-8.667c-3.648,3.043-7.23,5.914-10.692,8.586l5.624,5.624A2.342,2.342,0,0,0,147.048,430.872Z" transform="translate(-116.529 -351.56)"/>
    <path id="Path_12" data-name="Path 12" d="M.688,298.392l5.624,5.624c2.671-3.462,5.543-7.045,8.586-10.692l-8.667-2.177A2.345,2.345,0,0,0,4,291.763L.688,295.077a2.343,2.343,0,0,0,0,3.315Z" transform="translate(0 -245.595)"/>
    <path id="Path_13" data-name="Path 13" d="M187.512,25.68l-3.579,3.579,8.284,4.974,1.924-1.924a2.343,2.343,0,0,0,0-3.315l-3.315-3.314A2.342,2.342,0,0,0,187.512,25.68Z" transform="translate(-155.192 -21.088)"/>
    <path id="Path_14" data-name="Path 14" d="M436.432,262.338l-3.314-3.315a2.342,2.342,0,0,0-3.314,0l-1.923,1.923,4.973,8.285,3.579-3.579A2.342,2.342,0,0,0,436.432,262.338Z" transform="translate(-361.023 -217.972)"/>
    <path id="Path_15" data-name="Path 15" d="M321.432,286.647l-17.708-29.5-.6.6c-4.461,4.461-9.158,8.839-13.922,13.144l23.591,23.591a2.342,2.342,0,0,0,3.315,0l4.972-4.972A2.34,2.34,0,0,0,321.432,286.647Z" transform="translate(-244.014 -216.97)"/>
    <path id="Path_16" data-name="Path 16" d="M12.212,23.361,35.8,46.952c4.3-4.764,8.682-9.46,13.144-13.922l.6-.6-29.5-17.708a2.341,2.341,0,0,0-2.863.351l-4.972,4.972A2.342,2.342,0,0,0,12.212,23.361Z" transform="translate(-9.723 -12.14)"/>
  </g>
</svg>
