<svg xmlns="http://www.w3.org/2000/svg" width="25.955" height="20.26" viewBox="0 0 25.955 20.26">
  <path id="FontAwsome_twitter_" data-name="FontAwsome (twitter)" d="M23.287,53.131c.016.222.016.443.016.665A14.728,14.728,0,0,1,8.169,68.342,15.478,15.478,0,0,1,0,66.047a11.444,11.444,0,0,0,1.285.063,10.931,10.931,0,0,0,6.6-2.184A5.307,5.307,0,0,1,2.915,60.38a6.974,6.974,0,0,0,1,.079,5.841,5.841,0,0,0,1.4-.174,5.169,5.169,0,0,1-4.266-5.017V55.2a5.522,5.522,0,0,0,2.4.649A5.06,5.06,0,0,1,1.087,51.6a4.924,4.924,0,0,1,.725-2.58,15.331,15.331,0,0,0,10.968,5.35,5.556,5.556,0,0,1-.132-1.171,5.217,5.217,0,0,1,5.32-5.112A5.409,5.409,0,0,1,21.855,49.7a10.735,10.735,0,0,0,3.376-1.235,5.141,5.141,0,0,1-2.339,2.817,11.006,11.006,0,0,0,3.063-.791A11.2,11.2,0,0,1,23.287,53.131Z" transform="translate(0 -48.082)"/>
</svg>
